<svg width="200" height="41" viewBox="0 0 200 41" fill="none" xmlns="http://www.w3.org/2000/svg">
<path d="M9.72921 2.51941C9.72921 3.52853 9.69902 4.71232 9.63863 6.07075C9.57824 7.39038 9.51785 8.3995 9.45746 9.09813C9.27629 11.0776 9.1857 13.057 9.1857 15.0364C9.1857 16.5113 9.27629 18.0444 9.45746 19.6357C11.3295 17.8892 13.3526 16.6083 15.5267 15.7933C17.7007 14.9782 20.3277 14.5707 23.4075 14.5707C25.642 14.5707 27.7254 15.2111 29.6579 16.4919C31.5904 17.7727 32.8284 19.267 33.3719 20.9748C33.5531 22.4884 33.6437 24.332 33.6437 26.5055C33.6437 27.9028 33.7644 29.727 34.006 31.9781C34.1268 32.832 34.4589 33.6276 35.0024 34.3651C35.6063 35.1025 36.4518 35.4712 37.5388 35.4712C38.0823 35.4712 38.505 35.4518 38.807 35.413C39.1693 35.3742 39.5015 35.3548 39.8034 35.3548C40.6489 35.3548 41.2226 35.4906 41.5245 35.7623C41.8869 36.034 42.068 36.4221 42.068 36.9267C42.068 37.8582 41.3434 38.5568 39.894 39.0226C38.4447 39.4883 37.1161 39.7212 35.9083 39.7212C31.5602 39.7212 28.5709 38.5568 26.9404 36.2281C26.0345 34.9084 25.4608 33.2007 25.2192 31.1048C24.9777 28.9701 24.8569 26.4861 24.8569 23.6528C24.8569 20.8583 23.3774 19.4611 20.4182 19.4611C18.7877 19.4611 17.127 20.0238 15.4361 21.1494C13.8055 22.2362 12.4468 23.6916 11.3597 25.5158C10.2727 27.3012 9.72921 29.1642 9.72921 31.1048L9.8198 37.1596C9.8198 38.0134 9.30648 38.6539 8.27985 39.0808C7.25322 39.4689 6.28698 39.663 5.38113 39.663C4.05256 39.663 2.84476 39.4107 1.75774 38.9061C0.670716 38.3628 0.127206 37.7612 0.127206 37.1013C0.549936 34.1904 0.761301 29.3194 0.761301 22.4884C0.761301 21.2464 0.610326 16.6472 0.308376 8.6906L0.0366211 3.33447C0.0366211 2.4806 0.640521 1.74316 1.84832 1.12216C3.05612 0.462345 4.4149 0.132441 5.92464 0.132441C7.25322 0.132441 8.21946 0.326502 8.82336 0.714628C9.42726 1.10275 9.72921 1.70435 9.72921 2.51941ZM53.3889 2.05366C55.5026 2.1701 57.3445 2.53882 58.9146 3.15982C60.4847 3.742 61.2698 4.63469 61.2698 5.83788C61.2698 6.73057 60.6055 7.4486 59.2769 7.99197C58.0087 8.49653 56.4688 8.74882 54.6571 8.74882C52.9058 8.74882 51.698 8.45772 51.0337 7.87553C50.3694 7.29335 50.0373 6.69175 50.0373 6.07075C50.0373 4.90638 50.2184 3.93607 50.5808 3.15982C51.0035 2.38357 51.9395 2.01485 53.3889 2.05366ZM60.6357 27.8446V29.5329C60.6357 31.0466 60.6961 32.4827 60.8169 33.8411C60.998 35.1607 61.2094 36.4998 61.451 37.8582C61.3906 38.2463 60.9377 38.6539 60.0922 39.0808C59.2467 39.4689 58.4919 39.663 57.8276 39.663C56.6802 39.663 55.5026 39.5271 54.2948 39.2554C53.1473 38.9449 52.4529 38.5762 52.2113 38.1493C51.849 36.9073 51.6678 35.8011 51.6678 34.8308C51.6678 31.6482 51.5168 28.0774 51.2149 24.1186C50.9733 20.6254 50.8525 18.1803 50.8525 16.783C50.8525 16.0844 51.396 15.4828 52.4831 14.9782C53.5701 14.4737 54.7175 14.2214 55.9253 14.2214C57.6766 14.2214 58.8844 14.4737 59.5487 14.9782C60.2734 15.4828 60.6357 16.2784 60.6357 17.3652V27.8446ZM91.8646 5.13925C90.0529 5.13925 88.9357 6.10957 88.513 8.05019C88.0903 10.6894 87.8789 12.6883 87.8789 14.0467C89.0867 14.1243 90.3549 14.1632 91.6835 14.1632C92.5289 14.1632 93.6159 14.1243 94.9445 14.0467L97.2997 13.9885C98.5075 13.9885 99.4134 14.1243 100.017 14.396C100.621 14.6677 100.923 15.1141 100.923 15.7351C100.923 16.5889 100.47 17.3264 99.5644 17.9474C98.7189 18.5296 97.7225 18.8207 96.5751 18.8207C92.227 18.8207 89.2981 18.9565 87.7883 19.2282C87.7883 21.5958 87.9695 24.953 88.3318 29.3L88.513 32.1528L88.8753 36.6938C88.9961 37.8194 88.8149 38.615 88.3318 39.0808C87.9091 39.5077 86.973 39.7212 85.5237 39.7212C82.8665 39.7212 81.1454 38.6927 80.3603 36.6356C79.8772 35.1219 79.4847 33.0066 79.1827 30.2898C78.8808 27.5729 78.7298 25.1471 78.7298 23.0124C78.7298 21.8868 78.8204 20.606 79.0016 19.17C78.8808 19.1312 78.5486 19.1118 78.0051 19.1118C77.4616 19.1118 77.0691 19.1312 76.8275 19.17C75.0158 19.2476 73.6872 19.2864 72.8418 19.2864C72.2983 19.2864 71.7548 19.0535 71.2113 18.5878C70.6677 18.0832 70.396 17.4816 70.396 16.783C70.396 16.3949 70.6073 16.0456 71.0301 15.7351C71.4528 15.3858 71.9661 15.1335 72.57 14.9782C73.4759 14.6677 74.7743 14.5125 76.4652 14.5125L79.1827 14.5707C79.1827 9.05932 80.149 5.23628 82.0815 3.1016C83.8932 1.08335 86.8825 0.0742188 91.0494 0.0742188C93.465 0.0742188 95.6692 0.462344 97.6621 1.2386C98.5075 1.58791 99.1416 2.01485 99.5644 2.51941C100.047 3.02397 100.289 3.50913 100.289 3.97488C100.289 4.55707 99.9267 5.15866 99.202 5.77966C98.5377 6.40066 97.5111 6.71116 96.1221 6.71116C95.5786 6.71116 94.8841 6.43947 94.0387 5.8961C93.7367 5.70203 93.4046 5.52738 93.0422 5.37213C92.6799 5.21688 92.2874 5.13925 91.8646 5.13925ZM118.754 30.4062C118.754 31.8811 119.086 33.026 119.75 33.8411C120.475 34.6174 121.381 35.0055 122.468 35.0055C123.072 35.0055 123.646 34.9861 124.189 34.9473C124.733 34.8696 125.276 34.8308 125.82 34.8308C126.424 34.8308 126.937 35.0249 127.36 35.413C127.843 35.8011 128.084 36.2281 128.084 36.6938C128.084 37.6253 127.39 38.3628 126.001 38.9061C124.672 39.4107 122.861 39.663 120.566 39.663C118.935 39.663 117.274 39.3525 115.584 38.7315C113.953 38.0717 112.594 37.0625 111.507 35.7041C110.42 34.3069 109.877 32.5797 109.877 30.5226C109.877 26.098 109.997 22.3526 110.239 19.2864C110.541 15.638 110.692 11.0388 110.692 5.48857C110.692 3.742 110.843 2.51941 111.145 1.82078C111.507 1.27741 112.081 0.869878 112.866 0.598188C113.711 0.287689 114.587 0.132441 115.493 0.132441C116.399 0.132441 117.184 0.229472 117.848 0.423533C118.573 0.617595 119.056 0.928097 119.298 1.35503C119.539 1.82078 119.69 2.28653 119.75 2.75228C119.871 3.17922 119.932 3.80022 119.932 4.61528C119.932 6.2066 119.841 7.73969 119.66 9.21457C119.539 10.9999 119.479 12.3002 119.479 13.1152C118.996 19.9462 118.754 25.7099 118.754 30.4062ZM140.141 2.05366C142.254 2.1701 144.096 2.53882 145.666 3.15982C147.236 3.742 148.022 4.63469 148.022 5.83788C148.022 6.73057 147.357 7.4486 146.029 7.99197C144.76 8.49653 143.221 8.74882 141.409 8.74882C139.658 8.74882 138.45 8.45772 137.785 7.87553C137.121 7.29335 136.789 6.69175 136.789 6.07075C136.789 4.90638 136.97 3.93607 137.333 3.15982C137.755 2.38357 138.691 2.01485 140.141 2.05366ZM147.387 27.8446V29.5329C147.387 31.0466 147.448 32.4827 147.569 33.8411C147.75 35.1607 147.961 36.4998 148.203 37.8582C148.203 38.3239 147.78 38.7509 146.935 39.139C146.089 39.4883 145.304 39.663 144.579 39.663C143.432 39.663 142.254 39.5271 141.046 39.2554C139.899 38.9449 139.205 38.5762 138.963 38.1493C138.601 36.9073 138.42 35.8011 138.42 34.8308C138.42 31.6482 138.269 28.0774 137.967 24.1186C137.725 20.6254 137.604 18.1803 137.604 16.783C137.604 16.0844 138.148 15.4828 139.235 14.9782C140.322 14.4737 141.469 14.2214 142.677 14.2214C144.428 14.2214 145.636 14.4737 146.3 14.9782C147.025 15.4828 147.387 16.2784 147.387 17.3652V27.8446ZM190.574 13.7556C191.781 13.7556 192.717 13.9497 193.382 14.3378C194.106 14.6871 194.469 15.1335 194.469 15.6768C194.469 16.065 194.348 16.4725 194.106 16.8994C193.925 17.2876 193.714 17.6951 193.472 18.122C192.083 20.2179 189.154 23.1483 184.686 26.9131C189.275 30.7167 192.989 33.1619 195.827 34.2486C196.069 34.3263 196.522 34.4621 197.186 34.6562C197.851 34.8502 198.364 35.0831 198.726 35.3548C199.149 35.6265 199.36 35.937 199.36 36.2863C199.36 37.1402 198.847 37.8388 197.82 38.3822C196.854 38.8867 195.677 39.139 194.288 39.139C191.932 39.139 189.366 38.3045 186.588 36.6356C183.81 34.9278 181.455 33.1425 179.522 31.2795C178.133 32.6379 176.533 33.9963 174.721 35.3548C172.97 36.6744 171.339 37.8 169.83 38.7315C169.226 39.1584 168.501 39.4883 167.656 39.7212C166.87 39.9541 166.085 40.0705 165.3 40.0705C164.213 40.0705 163.247 39.9153 162.402 39.6048C161.556 39.2943 161.133 38.7509 161.133 37.9746C161.133 37.7806 161.345 37.4701 161.768 37.0431C162.19 36.5774 162.432 36.3057 162.492 36.2281C163.217 35.413 164.183 34.5785 165.391 33.7247C166.599 32.832 167.354 32.2692 167.656 32.0363C168.38 31.4541 169.165 30.8914 170.011 30.348C170.494 29.9987 171.219 29.4553 172.185 28.7178C173.151 27.9804 173.815 27.3982 174.178 26.9713L171.007 24.1768C169.497 23.0512 168.199 22.1585 167.112 21.4987C166.025 20.8001 165.149 20.4508 164.485 20.4508C163.519 20.4508 162.613 20.6254 161.768 20.9748C161.043 21.2853 160.318 21.4405 159.594 21.4405C158.808 21.4405 158.205 21.3241 157.782 21.0912C157.359 20.8195 157.148 20.5284 157.148 20.2179C157.148 18.8983 157.963 17.7727 159.594 16.8412C161.224 15.8709 163.277 15.3858 165.753 15.3858C168.108 15.3858 170.192 15.9097 172.004 16.9577C173.876 17.9668 175.718 19.3252 177.529 21.033C177.771 21.1882 178.043 21.4405 178.345 21.7898C178.647 22.1391 178.948 22.4302 179.25 22.6631C179.915 22.0421 181.123 20.8389 182.874 19.0535C184.746 16.9188 185.863 15.6963 186.225 15.3858C187.494 14.299 188.943 13.7556 190.574 13.7556Z" fill="white"/>
</svg>
