<svg width="122" height="22" viewBox="0 0 122 22" fill="none" xmlns="http://www.w3.org/2000/svg">
<path d="M8.16994 0.801199C8.74517 0.801199 9.26276 0.911693 9.72292 1.13268C10.1995 1.33524 10.635 1.56543 11.0294 1.82324C11.4402 2.08106 11.8264 2.32045 12.1879 2.54144C12.5494 2.744 12.9192 2.84528 13.2971 2.84528C13.5929 2.82687 13.9298 2.78083 14.3077 2.70717C14.6364 2.63351 15.0144 2.52302 15.4416 2.3757C15.8853 2.20996 16.3784 1.97056 16.9206 1.65751C16.3784 2.24679 15.9347 2.744 15.5896 3.14913C15.2609 3.53585 15.0062 3.85812 14.8254 4.11593C14.6118 4.41057 14.4557 4.64076 14.3571 4.8065C14.2584 5.00907 14.1106 5.31292 13.9134 5.71805C13.7326 6.08635 13.4861 6.58357 13.1739 7.20968C12.8617 7.81738 12.4672 8.61848 11.9907 9.61288C11.9907 8.34222 11.8757 7.357 11.6456 6.65723C11.432 5.95745 11.1937 5.42341 10.9307 5.0551C10.6185 4.63155 10.2652 4.36454 9.87079 4.25404C9.50928 4.1988 9.14777 4.27246 8.78618 4.47503C8.42467 4.65918 8.06316 4.93541 7.70165 5.30371C7.35654 5.67201 7.01964 6.11398 6.69099 6.6296C6.37876 7.12681 6.09118 7.65164 5.82824 8.20409C5.58175 8.75653 5.37633 9.31824 5.212 9.88906C5.04767 10.4416 4.94086 10.9572 4.89155 11.436C4.84225 11.8596 4.83404 12.3568 4.86691 12.9276C4.89977 13.48 4.97372 14.0509 5.08875 14.6402C5.20379 15.2111 5.35168 15.7727 5.53244 16.3252C5.71321 16.8777 5.93506 17.3749 6.19799 17.8168C6.47735 18.2403 6.78958 18.5903 7.1347 18.8665C7.4798 19.1243 7.8742 19.244 8.31789 19.2256C8.81086 19.1888 9.29564 19.023 9.77221 18.7283C10.183 18.4889 10.6021 18.1207 11.0294 17.6235C11.4566 17.1078 11.8264 16.3805 12.1386 15.4412L15.7867 16.1871C14.735 17.6235 13.708 18.7008 12.7055 19.4189C11.7195 20.1371 10.8321 20.6435 10.0433 20.9382C9.12309 21.2697 8.25212 21.4262 7.43051 21.4078C6.39519 21.2788 5.42563 20.929 4.52181 20.3581C3.61798 19.7872 2.83741 19.0967 2.18008 18.2864C1.53918 17.4578 1.03797 16.5554 0.676439 15.5794C0.314909 14.6033 0.158793 13.6458 0.208093 12.7066C0.240959 12.0805 0.355991 11.3531 0.553189 10.5244C0.750386 9.67731 1.01332 8.81177 1.34198 7.92784C1.68708 7.04394 2.09791 6.17843 2.57448 5.33134C3.05103 4.48423 3.57689 3.72921 4.15206 3.06626C4.72722 2.38491 5.35168 1.84166 6.02544 1.43652C6.71563 1.01297 7.43051 0.801199 8.16994 0.801199ZM16.3838 8.86708L20.9194 8.92232C20.6564 10.0457 20.4593 11.0032 20.3278 11.795C20.2127 12.5869 20.1388 13.2499 20.106 13.7839C20.0402 14.3916 20.0238 14.9073 20.0567 15.3308C20.106 15.7175 20.1881 16.1318 20.3031 16.5738C20.4018 16.9421 20.5497 17.3657 20.7468 17.8444C20.944 18.3232 21.207 18.802 21.5356 19.2809C21.3384 19.2072 21.1248 19.1519 20.8948 19.1151C20.6647 19.0782 20.4511 19.0506 20.2538 19.0323C20.0238 19.0138 19.7937 19.0138 19.5636 19.0323C19.3336 19.0506 19.0788 19.0782 18.7995 19.1151C18.5695 19.1519 18.2901 19.198 17.9614 19.2532C17.6327 19.3084 17.2876 19.3821 16.9261 19.4742C17.1726 18.6455 17.3616 17.9273 17.4931 17.3196C17.641 16.7119 17.7478 16.2055 17.8135 15.8004C17.8793 15.3216 17.9203 14.9348 17.9367 14.6402C17.9367 14.2719 17.9367 13.8575 17.9367 13.3972C17.9367 12.9184 17.9367 12.458 17.9367 12.0161C17.9367 11.5741 17.9285 11.1874 17.9121 10.8559C17.8957 10.506 17.8628 10.285 17.8135 10.193L17.567 9.91672C17.4684 9.82463 17.3205 9.69569 17.1233 9.52999C16.9426 9.34581 16.6961 9.12487 16.3838 8.86708ZM18.134 4.61314C18.4791 4.41057 18.8242 4.35533 19.1692 4.44741C19.5308 4.53948 19.8101 4.71442 20.0074 4.97223C20.2045 5.23005 20.2703 5.5339 20.2045 5.88379C20.1553 6.23367 19.8923 6.57436 19.4158 6.90583C18.9392 7.21889 18.5202 7.32937 18.1586 7.2373C17.7971 7.14523 17.5423 6.95187 17.3945 6.65723C17.2466 6.36259 17.2219 6.0219 17.3205 5.63519C17.4192 5.23005 17.6903 4.88937 18.134 4.61314ZM23.5377 18.1759C23.6528 17.5682 23.735 17.0342 23.7843 16.5738C23.85 16.095 23.8993 15.6991 23.9321 15.386C23.965 15.0177 23.9814 14.7046 23.9814 14.4468C23.965 14.1338 23.9485 13.7655 23.9321 13.342C23.9321 12.9 23.9157 12.4672 23.8828 12.0436C23.8664 11.6017 23.8418 11.215 23.8089 10.8835C23.7761 10.5336 23.735 10.285 23.6856 10.1377C23.6199 9.99034 23.5295 9.83382 23.4145 9.66812C23.1844 9.35501 22.8475 9.05117 22.4038 8.75653C22.7818 8.66444 23.1023 8.59082 23.3652 8.53559C23.6446 8.46189 23.8746 8.39746 24.0554 8.34222C24.2526 8.26852 24.4251 8.20409 24.5731 8.14886C24.7045 8.09362 24.8606 8.03839 25.0414 7.98315C25.1893 7.9463 25.3701 7.90026 25.5837 7.84501C25.7973 7.78976 26.0438 7.7253 26.3232 7.65164L26.2492 10.1653C26.7751 9.46556 27.3092 8.9407 27.8515 8.59082C28.3938 8.24094 28.9032 7.99234 29.3797 7.84501C29.9221 7.66085 30.4561 7.56877 30.982 7.56877C31.6393 7.60561 32.2473 7.7253 32.8061 7.92784C33.3812 8.13047 33.8742 8.3698 34.285 8.64606C34.7123 8.90385 35.0574 9.18011 35.3203 9.47475C35.5833 9.76939 35.7394 10.0272 35.7887 10.2482C35.9859 10.9664 36.0352 11.6293 35.9366 12.237C35.838 12.8263 35.7065 13.4064 35.5422 13.9773C35.3943 14.5297 35.2629 15.0822 35.1478 15.6346C35.0492 16.1871 35.0903 16.7856 35.2711 17.4301C35.3368 17.5958 35.4025 17.7616 35.4682 17.9273C35.534 18.0746 35.6162 18.2219 35.7147 18.3693C35.8133 18.5166 35.9284 18.6363 36.0598 18.7283C35.8791 18.71 35.6983 18.7008 35.5175 18.7008C35.3368 18.6823 35.1725 18.6639 35.0245 18.6455C34.8438 18.6271 34.6794 18.6087 34.5316 18.5903C34.3672 18.5718 34.1454 18.5626 33.866 18.5626C33.3895 18.5626 32.6499 18.5903 31.6475 18.6455C31.7955 18.2588 31.9104 17.9365 31.9926 17.6787C32.0912 17.4024 32.1734 17.1815 32.2391 17.0157C32.3048 16.8132 32.3541 16.6566 32.387 16.5462C32.5843 16.0121 32.6992 15.4045 32.7321 14.7231C32.7814 14.0417 32.7403 13.3512 32.6089 12.6514C32.5596 12.412 32.4774 12.1265 32.3623 11.795C32.2473 11.4636 32.0912 11.1413 31.894 10.8282C31.7133 10.5152 31.4914 10.2482 31.2285 10.0272C30.982 9.80624 30.6944 9.67731 30.3657 9.64046C30.037 9.60369 29.6673 9.69569 29.2565 9.91672C28.8621 10.1377 28.4348 10.5429 27.9747 11.1321C27.6296 11.6293 27.3584 12.237 27.1613 12.9552C26.9805 13.5629 26.8573 14.3272 26.7915 15.2479C26.7258 16.1503 26.8244 17.2091 27.0873 18.4245C26.8573 18.3877 26.6436 18.3693 26.4465 18.3693C26.2492 18.3509 26.0849 18.3324 25.9534 18.314C25.7891 18.2956 25.6412 18.2772 25.5097 18.2588C25.3619 18.2588 25.1975 18.2496 25.0167 18.2311C24.8524 18.2311 24.647 18.2311 24.4005 18.2311C24.154 18.2128 23.8664 18.1943 23.5377 18.1759ZM44.323 16.7671C44.7831 16.7671 45.2104 16.7119 45.6048 16.6014C45.9334 16.5093 46.2457 16.362 46.5415 16.1594C46.8537 15.9385 47.0591 15.6162 47.1577 15.1926C47.4864 15.2663 47.7658 15.3308 47.9958 15.386C48.2258 15.4228 48.4231 15.4597 48.5874 15.4965C48.7682 15.5518 48.9243 15.5885 49.0557 15.607C49.1872 15.6439 49.3433 15.6806 49.5241 15.7175C49.6884 15.7543 49.8856 15.8004 50.1157 15.8556C50.3622 15.8925 50.6498 15.9477 50.9784 16.0213C50.732 15.9845 50.4772 16.0121 50.2143 16.1042C49.9678 16.1963 49.7295 16.2976 49.4995 16.408C49.2366 16.537 48.99 16.6935 48.76 16.8777C48.612 16.9881 48.4395 17.1538 48.2423 17.3749C48.0616 17.5958 47.7986 17.8076 47.4535 18.0102C47.1084 18.2128 46.6483 18.3877 46.0731 18.535C45.5144 18.6639 44.7913 18.71 43.904 18.6731C42.8358 18.6363 41.9402 18.4245 41.2172 18.0378C40.4941 17.6327 39.9107 17.1447 39.467 16.5738C39.0233 15.9845 38.7028 15.3492 38.5057 14.6678C38.3084 13.9865 38.2016 13.3512 38.1852 12.7619C38.1688 12.1726 38.3249 11.5556 38.6535 10.9111C38.9822 10.2666 39.4423 9.67731 40.034 9.14326C40.6419 8.60921 41.3732 8.17644 42.2278 7.84501C43.0823 7.49511 44.0189 7.32017 45.0379 7.32017C45.6294 7.32017 46.1718 7.40304 46.6647 7.56877C47.1741 7.71609 47.6343 7.91864 48.0451 8.17644C48.4724 8.43431 48.8422 8.72895 49.1544 9.06037C49.4666 9.37347 49.7295 9.69569 49.9432 10.0272C50.1568 10.3771 50.3376 10.7454 50.4854 11.1321C50.6169 11.4636 50.7238 11.8411 50.8059 12.2647C50.888 12.6882 50.9127 13.1209 50.8798 13.5629C49.6309 13.5997 48.6203 13.6274 47.8479 13.6458C47.092 13.6642 46.5004 13.6734 46.0731 13.6734H44.9639H44.1258C43.83 13.6734 43.4438 13.6826 42.9672 13.701C42.4907 13.7194 41.9073 13.7471 41.2172 13.7839C41.2993 14.5205 41.5047 15.0913 41.8334 15.4965C42.1784 15.8832 42.54 16.1778 42.9179 16.3805C43.3452 16.6014 43.8136 16.7303 44.323 16.7671ZM42.1045 11.795C42.6304 11.8319 43.0659 11.8596 43.411 11.8779C43.7725 11.8963 44.0683 11.9148 44.2984 11.9332C44.5448 11.9516 44.742 11.9608 44.8899 11.9608H45.5062C45.917 11.9608 46.6811 11.9332 47.7986 11.8779C47.7493 11.0676 47.5932 10.4508 47.3303 10.0272C47.0837 9.60369 46.8208 9.29058 46.5415 9.08802C46.2128 8.86708 45.8513 8.73814 45.4569 8.70129C44.3887 8.71976 43.5917 8.96836 43.0659 9.44709C42.5564 9.92591 42.236 10.7086 42.1045 11.795ZM61.0903 0.386858C61.9777 0.423689 62.8733 0.607841 63.7771 0.939311C64.6974 1.25237 65.5437 1.768 66.3161 2.48619C67.0884 3.18597 67.7458 4.09751 68.288 5.22084C68.8304 6.32575 69.1672 7.67927 69.2987 9.28139C69.4137 10.5889 69.2659 11.8871 68.855 13.1762C68.4606 14.4468 67.9101 15.6162 67.2035 16.6843C66.4968 17.7524 65.6834 18.6639 64.7632 19.4189C63.8429 20.1555 62.9226 20.6435 62.0024 20.8829C61.4436 21.0302 60.8274 21.0487 60.1537 20.9382C59.4963 20.8093 58.8225 20.5791 58.1324 20.2476C57.4586 19.8977 56.7931 19.4558 56.1357 18.9217C55.4948 18.3877 54.9114 17.78 54.3856 17.0986C53.8597 16.3989 53.416 15.6439 53.0545 14.8336C52.7094 14.0233 52.4958 13.1762 52.4136 12.2922C52.3314 11.5556 52.3232 10.7454 52.389 9.86148C52.4711 8.95909 52.6272 8.06597 52.8573 7.18205C53.1038 6.27972 53.4407 5.4142 53.8679 4.58552C54.3116 3.73842 54.8704 3.00181 55.5442 2.3757C56.2179 1.73116 57.0067 1.23395 57.9105 0.884068C58.8307 0.515764 59.8907 0.350027 61.0903 0.386858ZM56.678 11.5741C56.4479 13.5445 56.6123 15.1282 57.171 16.3252C57.7462 17.5222 58.6089 18.2496 59.7593 18.5074C60.3179 18.6363 60.8521 18.5074 61.3615 18.1207C61.8873 17.7156 62.3639 17.1355 62.7912 16.3805C63.2185 15.6254 63.5882 14.7415 63.9004 13.7287C64.2126 12.7158 64.4427 11.6569 64.5906 10.552C64.7385 9.44709 64.7467 8.45269 64.6152 7.56877C64.5002 6.66644 64.2948 5.9022 63.999 5.27608C63.7032 4.63155 63.3416 4.13435 62.9144 3.78446C62.5036 3.43457 62.0764 3.24121 61.6326 3.20438C60.8603 3.14913 60.1865 3.37932 59.6113 3.89495C59.0362 4.39216 58.5514 5.04589 58.157 5.85616C57.7626 6.66644 57.4422 7.57798 57.1957 8.59082C56.9656 9.60369 56.793 10.5981 56.678 11.5741ZM71.3258 18.1759C71.4408 17.5682 71.5228 17.0342 71.5719 16.5738C71.6378 16.095 71.6869 15.6991 71.7198 15.386C71.7528 15.0177 71.7689 14.7046 71.7689 14.4468C71.7528 14.1338 71.736 13.7655 71.7198 13.342C71.7198 12.9 71.7037 12.4672 71.6707 12.0436C71.6539 11.6017 71.6294 11.215 71.5964 10.8835C71.5635 10.5336 71.5228 10.285 71.4737 10.1377C71.4078 9.99034 71.3174 9.83382 71.2024 9.66812C70.9724 9.35501 70.6351 9.05117 70.1913 8.75653C70.5692 8.66444 70.8897 8.59082 71.1526 8.53559C71.4324 8.46189 71.6623 8.39746 71.8432 8.34222C72.0402 8.26852 72.2127 8.20409 72.3607 8.14886C72.4925 8.09362 72.6481 8.03839 72.829 7.98315C72.977 7.9463 73.1579 7.90026 73.3717 7.84501C73.5849 7.78976 73.8317 7.7253 74.1107 7.65164L74.0371 10.1653C74.563 9.46556 75.0966 8.9407 75.6392 8.59082C76.1812 8.24094 76.691 7.99234 77.1678 7.84501C77.7097 7.66085 78.244 7.56877 78.7699 7.56877C79.4269 7.60561 80.0348 7.7253 80.5936 7.92784C81.1692 8.13047 81.6621 8.3698 82.073 8.64606C82.5 8.90385 82.845 9.18011 83.1079 9.47475C83.3708 9.76939 83.5272 10.0272 83.5763 10.2482C83.7733 10.9664 83.8231 11.6293 83.7242 12.237C83.626 12.8263 83.4942 13.4064 83.3302 13.9773C83.1822 14.5297 83.0504 15.0822 82.9354 15.6346C82.8372 16.1871 82.8779 16.7856 83.0588 17.4301C83.1247 17.5958 83.1899 17.7616 83.2558 17.9273C83.3217 18.0746 83.4038 18.2219 83.5026 18.3693C83.6008 18.5166 83.7158 18.6363 83.8476 18.7283C83.6667 18.71 83.4858 18.7008 83.3049 18.7008C83.1247 18.6823 82.96 18.6639 82.812 18.6455C82.6318 18.6271 82.467 18.6087 82.3191 18.5903C82.155 18.5718 81.9328 18.5626 81.6537 18.5626C81.1769 18.5626 80.4379 18.5903 79.4353 18.6455C79.5832 18.2588 79.6982 17.9365 79.7802 17.6787C79.8791 17.4024 79.9611 17.1815 80.027 17.0157C80.0922 16.8132 80.142 16.6566 80.175 16.5462C80.372 16.0121 80.487 15.4045 80.52 14.7231C80.569 14.0417 80.5284 13.3512 80.3966 12.6514C80.3475 12.412 80.2654 12.1265 80.1497 11.795C80.0348 11.4636 79.8791 11.1413 79.6821 10.8282C79.5012 10.5152 79.2789 10.2482 79.016 10.0272C78.7699 9.80624 78.4824 9.67731 78.1536 9.64046C77.8247 9.60369 77.4552 9.69569 77.0444 9.91672C76.6496 10.1377 76.2226 10.5429 75.7626 11.1321C75.417 11.6293 75.1463 12.237 74.9493 12.9552C74.7684 13.5629 74.645 14.3272 74.5791 15.2479C74.5132 16.1503 74.6121 17.2091 74.875 18.4245C74.645 18.3877 74.4312 18.3693 74.2341 18.3693C74.0371 18.3509 73.8724 18.3324 73.7412 18.314C73.5772 18.2956 73.4292 18.2772 73.2974 18.2588C73.1495 18.2588 72.9854 18.2496 72.8045 18.2311C72.6404 18.2311 72.435 18.2311 72.1882 18.2311C71.9414 18.2128 71.6539 18.1943 71.3258 18.1759ZM92.1106 16.7671C92.5706 16.7671 92.9983 16.7119 93.3924 16.6014C93.7212 16.5093 94.0332 16.362 94.3291 16.1594C94.6411 15.9385 94.8465 15.6162 94.9454 15.1926C95.2742 15.2663 95.5533 15.3308 95.7833 15.386C96.0139 15.4228 96.211 15.4597 96.375 15.4965C96.5559 15.5518 96.7123 15.5885 96.8434 15.607C96.9752 15.6439 97.1309 15.6806 97.3118 15.7175C97.4758 15.7543 97.6736 15.8004 97.9035 15.8556C98.1496 15.8925 98.4378 15.9477 98.766 16.0213C98.5199 15.9845 98.2646 16.0121 98.0017 16.1042C97.7556 16.1963 97.5172 16.2976 97.2872 16.408C97.0243 16.537 96.7775 16.6935 96.5475 16.8777C96.3996 16.9881 96.2271 17.1538 96.0301 17.3749C95.8492 17.5958 95.5862 17.8076 95.2413 18.0102C94.8963 18.2128 94.4364 18.3877 93.8607 18.535C93.3019 18.6639 92.579 18.71 91.6914 18.6731C90.6235 18.6363 89.7281 18.4245 89.0046 18.0378C88.2817 17.6327 87.6983 17.1447 87.2545 16.5738C86.8107 15.9845 86.4902 15.3492 86.2932 14.6678C86.0962 13.9865 85.9896 13.3512 85.9728 12.7619C85.9567 12.1726 86.1123 11.5556 86.4412 10.9111C86.77 10.2666 87.2299 9.67731 87.8217 9.14326C88.4296 8.60921 89.1609 8.17644 90.0156 7.84501C90.8703 7.49511 91.8071 7.32017 92.8258 7.32017C93.4169 7.32017 93.9596 7.40304 94.4525 7.56877C94.9622 7.71609 95.4222 7.91864 95.833 8.17644C96.26 8.43431 96.6296 8.72895 96.9423 9.06037C97.2543 9.37347 97.5172 9.69569 97.7311 10.0272C97.9442 10.3771 98.1251 10.7454 98.2731 11.1321C98.4049 11.4636 98.5114 11.8411 98.5935 12.2647C98.6755 12.6882 98.7008 13.1209 98.6678 13.5629C97.4184 13.5997 96.408 13.6274 95.6353 13.6458C94.8795 13.6642 94.2884 13.6734 93.8607 13.6734H92.7515H91.9136C91.6177 13.6734 91.2314 13.6826 90.7553 13.701C90.2785 13.7194 89.6952 13.7471 89.0046 13.7839C89.0873 14.5205 89.2927 15.0913 89.6209 15.4965C89.9658 15.8832 90.3276 16.1778 90.7056 16.3805C91.1332 16.6014 91.6016 16.7303 92.1106 16.7671ZM89.8922 11.795C90.4181 11.8319 90.8535 11.8596 91.1985 11.8779C91.5602 11.8963 91.8561 11.9148 92.0861 11.9332C92.3329 11.9516 92.5299 11.9608 92.6779 11.9608H93.2942C93.7051 11.9608 94.4686 11.9332 95.5863 11.8779C95.5372 11.0676 95.3808 10.4508 95.1179 10.0272C94.8718 9.60369 94.6088 9.29058 94.3291 9.08802C94.0003 8.86708 93.6392 8.73814 93.2444 8.70129C92.1766 8.71976 91.3793 8.96836 90.8535 9.44709C90.3445 9.92591 90.024 10.7086 89.8922 11.795ZM100.645 1.74037C100.957 1.99819 101.27 2.19154 101.582 2.32045C101.911 2.43094 102.207 2.5046 102.469 2.54144C102.765 2.59668 103.061 2.60589 103.356 2.56906C103.636 2.53223 103.924 2.42173 104.22 2.23759C104.515 2.05343 104.86 1.86007 105.254 1.65751C105.649 1.45494 106.109 1.28 106.635 1.13268C107.177 0.966937 107.826 0.884068 108.582 0.884068C108.911 0.884068 109.256 0.957728 109.618 1.10505C109.996 1.25237 110.357 1.44573 110.702 1.68513C111.047 1.90611 111.359 2.15472 111.639 2.43094C111.935 2.70717 112.157 2.9834 112.304 3.25963C112.469 3.53585 112.584 3.98703 112.649 4.61314C112.715 5.22084 112.74 5.88379 112.724 6.60198C112.707 7.32017 112.649 8.02919 112.551 8.72895C112.469 9.42871 112.345 9.99961 112.181 10.4416C111.984 10.8282 111.606 11.3255 111.047 11.9332C110.571 12.4488 109.856 13.1117 108.902 13.922C107.95 14.7323 106.668 15.6991 105.057 16.8224C106.01 16.804 106.807 16.7764 107.448 16.7395C108.106 16.6843 108.64 16.6291 109.05 16.5738C109.527 16.5001 109.905 16.4264 110.184 16.3528C110.431 16.2423 110.694 16.0858 110.973 15.8832C111.204 15.6991 111.45 15.4597 111.713 15.165C111.992 14.8704 112.263 14.4837 112.526 14.0049C112.576 14.9993 112.625 15.7819 112.674 16.3528C112.707 16.6843 112.731 16.9698 112.748 17.2091C112.764 17.4301 112.781 17.6879 112.797 17.9825C112.813 18.2403 112.822 18.535 112.822 18.8665C112.839 19.198 112.863 19.5478 112.896 19.9162C112.074 19.6768 111.326 19.4926 110.653 19.3637C109.979 19.2163 109.404 19.1151 108.927 19.0598C108.369 18.9862 107.868 18.9494 107.424 18.9494C106.964 18.9677 106.454 19.0138 105.895 19.0875C105.402 19.1611 104.811 19.2716 104.121 19.4189C103.447 19.5478 102.683 19.7412 101.828 19.999C101.763 19.7964 101.705 19.5939 101.655 19.3913C101.606 19.1703 101.565 18.9586 101.533 18.756C101.483 18.535 101.442 18.314 101.409 18.093C101.376 17.8721 101.343 17.6603 101.31 17.4578C101.277 17.2736 101.253 17.0802 101.237 16.8777C101.22 16.6751 101.204 16.4818 101.187 16.2976C102.502 15.3584 103.57 14.5113 104.392 13.7563C105.214 12.9828 105.862 12.3291 106.339 11.795C106.882 11.1689 107.292 10.5981 107.572 10.0824C107.851 9.45637 108.081 8.76572 108.262 8.01073C108.443 7.25572 108.5 6.55594 108.434 5.91141C108.385 5.26688 108.188 4.74205 107.843 4.33691C107.497 3.91336 106.947 3.72921 106.191 3.78446C105.698 3.82129 105.23 4.01465 104.786 4.36454C104.359 4.71442 103.964 5.13797 103.603 5.63519C103.241 6.13239 102.921 6.66644 102.642 7.2373C102.362 7.78976 102.124 8.31457 101.927 8.81177C101.746 9.30904 101.598 9.72335 101.483 10.0548C101.385 10.3863 101.335 10.5612 101.335 10.5796C101.319 10.6165 101.294 10.4783 101.261 10.1653C101.245 9.85229 101.22 9.46556 101.187 9.00513C101.171 8.52639 101.146 8.02919 101.113 7.51353C101.08 6.99791 101.048 6.56515 101.015 6.21526C100.998 5.93903 100.974 5.57994 100.941 5.13797C100.892 4.41978 100.793 3.28725 100.645 1.74037ZM115.243 4.0883C115.819 3.88574 116.287 3.72 116.648 3.5911C117.01 3.44378 117.306 3.32408 117.536 3.232C117.799 3.12151 117.996 3.02023 118.128 2.92815L118.719 2.59668C118.949 2.46778 119.244 2.30204 119.606 2.09947C119.968 1.87848 120.436 1.60226 121.011 1.27079C120.88 1.97056 120.781 2.63351 120.715 3.25963C120.666 3.86733 120.625 4.41057 120.592 4.88937C120.543 5.44182 120.518 5.94824 120.518 6.40862C120.502 6.79534 120.477 7.31097 120.444 7.95549C120.428 8.60002 120.403 9.29977 120.37 10.0548C120.338 10.8098 120.305 11.5833 120.272 12.3751C120.239 13.167 120.214 13.9128 120.198 14.6126C120.198 15.2939 120.206 15.8832 120.223 16.3805C120.255 16.8777 120.313 17.2184 120.395 17.4024C120.477 17.6235 120.584 17.8352 120.715 18.0378C120.83 18.2219 120.962 18.4337 121.109 18.6731C121.274 18.8941 121.471 19.1151 121.701 19.3361C121.323 19.4282 120.97 19.511 120.641 19.5847C120.313 19.6399 120.026 19.686 119.779 19.7228C119.483 19.7781 119.22 19.8241 118.99 19.8609C118.743 19.8793 118.407 19.9254 117.98 19.999C117.618 20.0542 117.158 20.1279 116.599 20.22C116.04 20.2936 115.35 20.3765 114.528 20.4686C114.955 20.174 115.293 19.8885 115.539 19.6123C115.802 19.3361 115.999 19.0967 116.131 18.8941C116.279 18.6547 116.369 18.4245 116.402 18.2036C116.418 18.0562 116.443 17.6603 116.476 17.0157C116.525 16.3528 116.566 15.5794 116.599 14.6954C116.648 13.7931 116.689 12.8355 116.722 11.8227C116.771 10.7915 116.804 9.83382 116.821 8.94989C116.837 8.06597 116.845 7.31097 116.845 6.68484C116.845 6.05873 116.821 5.68122 116.771 5.55232C116.706 5.42341 116.607 5.27608 116.476 5.11035C116.361 4.96303 116.204 4.8065 116.007 4.64076C115.826 4.47502 115.572 4.29088 115.243 4.0883Z" fill="#394BA7"/>
</svg>
