<svg width="284" height="56" viewBox="0 0 284 56" fill="none" xmlns="http://www.w3.org/2000/svg">
<rect width="284" height="56" rx="6" fill="#EFF0F6"/>
<path d="M67.328 34V32.768L71.2 28.72C71.7013 28.1973 72.0747 27.7067 72.32 27.248C72.5653 26.7893 72.688 26.3147 72.688 25.824C72.688 25.216 72.496 24.7573 72.112 24.448C71.7387 24.1387 71.1947 23.984 70.48 23.984C69.9147 23.984 69.3813 24.0853 68.88 24.288C68.3893 24.4907 67.9147 24.8 67.456 25.216L66.88 23.952C67.328 23.536 67.8827 23.2053 68.544 22.96C69.216 22.704 69.9253 22.576 70.672 22.576C71.8453 22.576 72.7467 22.8427 73.376 23.376C74.016 23.9093 74.336 24.672 74.336 25.664C74.336 26.368 74.1653 27.0453 73.824 27.696C73.4827 28.336 72.9707 28.9973 72.288 29.68L68.944 33.056V32.608H74.8V34H67.328ZM77.7638 34V32.608H80.3878V24.128H81.2198L78.0198 26.08V24.48L80.8518 22.72H82.0518V32.608H84.5158V34H77.7638ZM86.6635 34.912H85.3035L89.4955 22H90.8555L86.6635 34.912ZM95.5344 34.144C94.233 34.144 93.2304 33.648 92.5264 32.656C91.833 31.6533 91.4864 30.2187 91.4864 28.352C91.4864 26.4533 91.833 25.0187 92.5264 24.048C93.2304 23.0667 94.233 22.576 95.5344 22.576C96.8464 22.576 97.849 23.0667 98.5424 24.048C99.2357 25.0187 99.5824 26.448 99.5824 28.336C99.5824 30.2133 99.2304 31.6533 98.5264 32.656C97.833 33.648 96.8357 34.144 95.5344 34.144ZM95.5344 32.752C96.3557 32.752 96.9637 32.3947 97.3584 31.68C97.7637 30.9653 97.9664 29.8507 97.9664 28.336C97.9664 26.8107 97.7637 25.7013 97.3584 25.008C96.9637 24.304 96.3557 23.952 95.5344 23.952C94.7237 23.952 94.1157 24.304 93.7104 25.008C93.305 25.7013 93.1024 26.8053 93.1024 28.32C93.1024 29.8453 93.305 30.9653 93.7104 31.68C94.1264 32.3947 94.7344 32.752 95.5344 32.752ZM102.178 34L107.714 23.488V24.128H101.538V22.72H109.218V23.952L104.002 34H102.178ZM111.398 34.912H110.038L114.23 22H115.59L111.398 34.912ZM116.797 34V32.768L120.669 28.72C121.17 28.1973 121.543 27.7067 121.789 27.248C122.034 26.7893 122.157 26.3147 122.157 25.824C122.157 25.216 121.965 24.7573 121.581 24.448C121.207 24.1387 120.663 23.984 119.949 23.984C119.383 23.984 118.85 24.0853 118.349 24.288C117.858 24.4907 117.383 24.8 116.925 25.216L116.349 23.952C116.797 23.536 117.351 23.2053 118.013 22.96C118.685 22.704 119.394 22.576 120.141 22.576C121.314 22.576 122.215 22.8427 122.845 23.376C123.485 23.9093 123.805 24.672 123.805 25.664C123.805 26.368 123.634 27.0453 123.293 27.696C122.951 28.336 122.439 28.9973 121.757 29.68L118.413 33.056V32.608H124.269V34H116.797ZM130.113 34.144C128.811 34.144 127.809 33.648 127.105 32.656C126.411 31.6533 126.065 30.2187 126.065 28.352C126.065 26.4533 126.411 25.0187 127.105 24.048C127.809 23.0667 128.811 22.576 130.113 22.576C131.425 22.576 132.427 23.0667 133.121 24.048C133.814 25.0187 134.161 26.448 134.161 28.336C134.161 30.2133 133.809 31.6533 133.105 32.656C132.411 33.648 131.414 34.144 130.113 34.144ZM130.113 32.752C130.934 32.752 131.542 32.3947 131.937 31.68C132.342 30.9653 132.545 29.8507 132.545 28.336C132.545 26.8107 132.342 25.7013 131.937 25.008C131.542 24.304 130.934 23.952 130.113 23.952C129.302 23.952 128.694 24.304 128.289 25.008C127.883 25.7013 127.681 26.8053 127.681 28.32C127.681 29.8453 127.883 30.9653 128.289 31.68C128.705 32.3947 129.313 32.752 130.113 32.752Z" fill="#4E4B66"/>
<path d="M38.25 22H27.75C26.9216 22 26.25 22.6716 26.25 23.5V34C26.25 34.8284 26.9216 35.5 27.75 35.5H38.25C39.0784 35.5 39.75 34.8284 39.75 34V23.5C39.75 22.6716 39.0784 22 38.25 22Z" stroke="#4E4B66" stroke-width="1.66667" stroke-linecap="round" stroke-linejoin="round"/>
<path d="M36 20.5V23.5" stroke="#4E4B66" stroke-width="1.66667" stroke-linecap="round" stroke-linejoin="round"/>
<path d="M30 20.5V23.5" stroke="#4E4B66" stroke-width="1.66667" stroke-linecap="round" stroke-linejoin="round"/>
<path d="M26.25 26.5H39.75" stroke="#4E4B66" stroke-width="1.66667" stroke-linecap="round" stroke-linejoin="round"/>
<path d="M256.458 27L251.526 29.3211L246.594 27" stroke="#A0A3BD" stroke-width="2" stroke-linecap="round" stroke-linejoin="round"/>
</svg>
